<?xml version="1.0" encoding="utf-8"?>
<!DOCTYPE svg PUBLIC "-//W3C//DTD SVG 1.1//EN" "http://www.w3.org/Graphics/SVG/1.1/DTD/svg11.dtd" [
	<!ENTITY ns_flows "http://ns.adobe.com/Flows/1.0/">
]>
<svg version="1.1"
	 xmlns="http://www.w3.org/2000/svg" xmlns:xlink="http://www.w3.org/1999/xlink" xmlns:a="http://ns.adobe.com/AdobeSVGViewerExtensions/3.0/"
	 x="0px" y="0px" width="24px" height="24px" viewBox="-1.78 -1.84 24 24" enable-background="new -1.78 -1.84 24 24"
	 xml:space="preserve">
<defs>
</defs>
<g id="XMLID_2_">
	<g>
		<path fill="#263238" d="M18.61,2.8v1.53H18.6c-0.05-0.58-0.28-1.11-0.63-1.53H18.61z"/>
		<path fill="#263238" d="M18.6,4.33h-5.75c0.05-0.58,0.28-1.11,0.64-1.53h4.48C18.32,3.22,18.55,3.75,18.6,4.33z"/>
		<path fill="#3F51B5" d="M17.97,2.8h-4.48c0.53-0.63,1.341-1.03,2.24-1.03C16.63,1.77,17.43,2.17,17.97,2.8z"/>
		<path fill="#311B92" d="M17.56,18.12v-1.53h-0.359c0.159-2.449,0.359-5.12,0.359-5.12l0.53,8.69h-1.05
			c0-0.44,0.029-1.17,0.08-2.04H17.56z"/>
		<path fill="#311B92" d="M17.56,16.59v1.53h-0.439c0.02-0.479,0.05-1,0.08-1.53H17.56z"/>
		<path fill="#E8EAF6" d="M17.041,8.42c0.06,0,0.46,0,0.52,0l-4.609,8.17H11.27v-0.02l4.79-8.15H17.041z"/>
		<path fill="#E8EAF6" d="M12.951,16.59h4.25c-0.03,0.53-0.061,1.051-0.08,1.53H11.27v-1.03h1.4L12.951,16.59z"/>
		<path fill="#3F51B5" d="M17.56,11.47c0,0-0.2,2.671-0.359,5.12h-4.25l4.609-8.17c1.46,0,2.62,1.13,2.62,2.55v9.19
			c0,0-0.01,0-1.57,0c-0.14,0-0.319,0-0.52,0L17.56,11.47z"/>
		<path fill="#3F51B5" d="M11.27,18.12h5.851c-0.051,0.87-0.08,1.6-0.08,2.04c-2.28,0-5.771,0-5.771,0V18.12z"/>
		<path fill="#FFB74D" d="M12.85,4.33h5.75c0.01,0.08,0.01,0.17,0.01,0.25c0,1.55-1.29,2.81-2.88,2.81s-2.89-1.26-2.89-2.81
			C12.84,4.5,12.84,4.41,12.85,4.33z"/>
		<path fill="#263238" d="M12.84,2.8h0.649c-0.359,0.42-0.59,0.95-0.64,1.53h-1.58L12.84,2.8z"/>
		<polygon fill="#E8EAF6" points="12.951,16.59 12.67,17.09 11.27,17.09 11.27,16.59 		"/>
		<path fill="#3F51B5" d="M17.97,2.8c-0.54-0.63-1.34-1.03-2.24-1.03c-0.899,0-1.71,0.4-2.24,1.03H12.84c0,0-0.91-1.35-1.03-1.94
			c0.05,0.23,0.26,0.4,0.51,0.4c0.29,0,0.521-0.22,0.521-0.51c0-0.21-0.13-0.39-0.32-0.46c2.58,0.49,5.57,0.97,5.57,0.97
			s0.52,0,0.52,0.51c0,1.03,0,1.03,0,1.03H17.97z"/>
		<path fill="#3F51B5" d="M12.52,0.29c0.19,0.07,0.32,0.25,0.32,0.46c0,0.29-0.23,0.51-0.521,0.51c-0.25,0-0.46-0.17-0.51-0.4
			C11.8,0.82,11.8,0.79,11.8,0.75s0-0.08,0.01-0.11s0.021-0.06,0.03-0.09c0.04-0.09,0.11-0.16,0.189-0.22
			c0.04-0.02,0.08-0.04,0.131-0.05c0.029-0.01,0.05-0.02,0.079-0.02c0.03-0.01,0.051-0.01,0.08-0.01c0.061,0.01,0.11,0.02,0.17,0.03
			C12.5,0.28,12.51,0.28,12.52,0.29z"/>
		<path fill="#3F51B5" d="M12.49,0.28c-0.06-0.01-0.109-0.02-0.17-0.03C12.38,0.25,12.44,0.26,12.49,0.28z"/>
		<path fill="#3F51B5" d="M12.24,0.26c-0.029,0-0.05,0.01-0.079,0.02C12.19,0.27,12.21,0.26,12.24,0.26z"/>
		<path fill="#3F51B5" d="M11.84,0.55c0.04-0.11,0.11-0.18,0.189-0.22C11.951,0.39,11.88,0.46,11.84,0.55z"/>
		<path fill="#3F51B5" d="M11.84,0.55c-0.01,0.03-0.021,0.06-0.03,0.09C11.82,0.61,11.82,0.58,11.84,0.55z"/>
		<polygon fill="#1A237E" points="9.05,15.44 11.27,12.5 11.27,13.68 9.3,15.28 		"/>
		<polygon fill="#FFCC80" points="5.49,2.8 7.07,9.43 6.14,9.79 4.97,4.83 0.25,4.83 		"/>
		<path fill="#DD2C00" d="M6.14,9.79l0.4,1.68H5.89l-0.85-0.71c-0.19-0.16-0.4-0.25-0.63-0.29L6.14,9.79z"/>
		<path fill="#DD2C00" d="M4.97,4.83l1.17,4.96l-1.73,0.68H4.4c-0.43-0.07-0.89,0.08-1.21,0.43c-0.01,0.02-0.03,0.029-0.04,0.05
			l-1.33,0.52L0.25,4.83H4.97z"/>
		<path fill="#DD2C00" d="M5.89,11.47H2.9c0.04-0.18,0.12-0.359,0.25-0.52l1.25-0.48h0.01c0.23,0.04,0.44,0.13,0.63,0.29L5.89,11.47
			z"/>
		<path fill="#DD2C00" d="M4.4,10.47l-1.25,0.48c0.01-0.021,0.03-0.03,0.04-0.05C3.51,10.55,3.97,10.4,4.4,10.47z"/>
		<path fill="#3F51B5" d="M16.06,8.42l-4.79,8.15V13.68V12.5l-2.22,2.94l0.25-0.16L8.79,15.7c-0.26,0.25-0.6,0.37-0.93,0.37
			c-0.31,0-0.61-0.101-0.85-0.311L3.33,12.7c-0.38-0.31-0.52-0.79-0.43-1.23h2.99l1.9,1.591l3.03-2.96
			c0.86-1.05,1.69-1.44,2.41-1.59c0.221-0.06,0.431-0.09,0.66-0.09h0.35c0.061,0,0.12,0,0.181,0H16.06z"/>
		<path fill="#DD2C00" d="M1.82,11.47l1.33-0.52c-0.13,0.16-0.21,0.34-0.25,0.52H1.82z"/>
	</g>
	<g>
	</g>
</g>
</svg>
