<?xml version="1.0" encoding="utf-8"?>
<!DOCTYPE svg PUBLIC "-//W3C//DTD SVG 1.1//EN" "http://www.w3.org/Graphics/SVG/1.1/DTD/svg11.dtd" [
	<!ENTITY ns_flows "http://ns.adobe.com/Flows/1.0/">
]>
<svg version="1.1"
	 xmlns="http://www.w3.org/2000/svg" xmlns:xlink="http://www.w3.org/1999/xlink" xmlns:a="http://ns.adobe.com/AdobeSVGViewerExtensions/3.0/"
	 x="0px" y="0px" width="24px" height="24px" viewBox="-2.007 -2.063 24 24" enable-background="new -2.007 -2.063 24 24"
	 xml:space="preserve">
<defs>
</defs>
<path fill="#BBDEFB" d="M18.334,0H1.667C0.747,0,0,0.745,0,1.664v18.305l4.752-4.438h13.582c0.92,0,1.666-0.745,1.666-1.664V1.664
	C20,0.745,19.254,0,18.334,0z"/>
<path fill="none" stroke="#37474F" stroke-width="0.0037" d="M7.778,6.656V5.547c0,0,0-2.219,2.222-2.219
	c2.223,0,2.223,2.219,2.223,2.219v1.109"/>
<path fill="#FB8C00" d="M13.444,12.758H6.556c-0.554,0-1-0.446-1-0.999V7.101c0-0.553,0.447-0.999,1-0.999h6.888
	c0.551,0,1,0.446,1,0.999v4.658C14.444,12.312,13.995,12.758,13.444,12.758"/>
<path fill="#C76E00" d="M11.111,9.43c0,0.614-0.498,1.109-1.111,1.109c-0.614,0-1.111-0.496-1.111-1.109S9.386,8.32,10,8.32
	C10.613,8.32,11.111,8.816,11.111,9.43"/>
</svg>
