<?xml version="1.0" encoding="utf-8"?>
<!DOCTYPE svg PUBLIC "-//W3C//DTD SVG 1.1//EN" "http://www.w3.org/Graphics/SVG/1.1/DTD/svg11.dtd" [
	<!ENTITY ns_flows "http://ns.adobe.com/Flows/1.0/">
]>
<svg version="1.1"
	 xmlns="http://www.w3.org/2000/svg" xmlns:xlink="http://www.w3.org/1999/xlink" xmlns:a="http://ns.adobe.com/AdobeSVGViewerExtensions/3.0/"
	 x="0px" y="0px" width="24px" height="24px" viewBox="-1.773 -1.68 24 24" enable-background="new -1.773 -1.68 24 24"
	 xml:space="preserve">
<defs>
</defs>
<g id="XMLID_2_">
	<g>
		<path fill="#2980B9" d="M15.687,4.15c0.36,0,0.56,0.62,0.33,1.05l-5.45,10.12c-0.17,0.31-0.48,0.29-0.65-0.02L4.477,5.2
			c-0.23-0.43-0.04-1.05,0.32-1.05H15.687z"/>
		<path fill="#2980B9" d="M19.377,2.61c0.13-0.24,0.159-0.55,0.069-0.83c-0.09-0.26-0.239-0.41-0.43-0.41H1.467
			c-0.18,0-0.34,0.15-0.43,0.41c-0.08,0.28-0.06,0.59,0.07,0.83l8.77,16.33c0.19,0.34,0.54,0.34,0.73,0L19.377,2.61z M20.107,1.3
			c0.22,0.67,0.16,1.44-0.149,2.01l-8.78,16.33c-0.23,0.43-0.57,0.68-0.93,0.68c-0.37,0-0.71-0.25-0.94-0.68L0.527,3.31
			c-0.31-0.57-0.36-1.34-0.15-2.01c0.2-0.65,0.62-1.05,1.09-1.05h17.55C19.487,0.25,19.907,0.65,20.107,1.3z"/>
	</g>
	<g>
	</g>
</g>
</svg>
