<?xml version="1.0" encoding="utf-8"?>
<!DOCTYPE svg PUBLIC "-//W3C//DTD SVG 1.1//EN" "http://www.w3.org/Graphics/SVG/1.1/DTD/svg11.dtd" [
	<!ENTITY ns_flows "http://ns.adobe.com/Flows/1.0/">
]>
<svg version="1.1"
	 xmlns="http://www.w3.org/2000/svg" xmlns:xlink="http://www.w3.org/1999/xlink" xmlns:a="http://ns.adobe.com/AdobeSVGViewerExtensions/3.0/"
	 x="0px" y="0px" width="24px" height="24px" viewBox="-2.037 -2 24 24" enable-background="new -2.037 -2 24 24"
	 xml:space="preserve">
<defs>
</defs>
<path fill="#424242" d="M9.973,0C6.544,0,3.74,2.247,3.74,4.99v1.996h2.493V4.99c0-1.646,1.683-2.994,3.74-2.994
	c2.057,0,3.739,1.347,3.739,2.994h2.493C16.205,2.247,13.399,0,9.973,0z"/>
<path fill="#FB8C00" d="M17.451,19.962H2.493C1.123,19.962,0,19.063,0,17.967V8.983c0-1.097,1.123-1.997,2.493-1.997h14.958
	c1.37,0,2.493,0.9,2.493,1.997v8.984C19.944,19.063,18.821,19.962,17.451,19.962z"/>
<path fill="#C76E00" d="M11.842,13.475c0,0.829-0.838,1.5-1.869,1.5c-1.033,0-1.87-0.671-1.87-1.5c0-0.823,0.837-1.499,1.87-1.499
	C11.004,11.976,11.842,12.651,11.842,13.475z"/>
</svg>
