<?xml version="1.0" encoding="utf-8"?>
<!DOCTYPE svg PUBLIC "-//W3C//DTD SVG 1.1//EN" "http://www.w3.org/Graphics/SVG/1.1/DTD/svg11.dtd" [
	<!ENTITY ns_flows "http://ns.adobe.com/Flows/1.0/">
]>
<svg version="1.1"
	 xmlns="http://www.w3.org/2000/svg" xmlns:xlink="http://www.w3.org/1999/xlink" xmlns:a="http://ns.adobe.com/AdobeSVGViewerExtensions/3.0/"
	 x="0px" y="0px" width="24px" height="24px" viewBox="-1.988 -1.982 24 24" enable-background="new -1.988 -1.982 24 24"
	 xml:space="preserve">
<defs>
</defs>
<path fill="#FFA000" d="M17.99,2.504H8.998L6.998,0h-5C0.899,0,0,1.127,0,2.504v5.015h19.987V5.015
	C19.987,3.632,19.093,2.504,17.99,2.504z"/>
<path fill="#FFCA28" d="M17.99,2.504H1.998C0.899,2.504,0,3.632,0,5.015v12.534c0,1.377,0.899,2.51,1.998,2.51H17.99
	c1.104,0,1.997-1.133,1.997-2.51V5.015C19.987,3.632,19.093,2.504,17.99,2.504z"/>
<path fill="#FFE082" d="M5.497,4.387h8.996v13.789H5.497V4.387z"/>
<path fill="#FF9800" d="M9.994,15.671c-1.199,0-1.249-2.193-1.249-2.193v-1.882h2.498v1.882
	C11.243,13.478,11.195,15.671,9.994,15.671z"/>
<path fill="#FFA726" d="M12.743,9.713c0,0.347-0.223,0.628-0.498,0.628c-0.278,0-0.501-0.281-0.501-0.628
	c0-0.342,0.223-0.627,0.501-0.627C12.52,9.085,12.743,9.371,12.743,9.713z"/>
<path fill="#FFA726" d="M8.246,9.713c0,0.347-0.224,0.628-0.5,0.628S7.245,10.06,7.245,9.713c0-0.342,0.225-0.627,0.501-0.627
	S8.246,9.371,8.246,9.713z"/>
<path fill="#FFB74D" d="M12.245,7.835c0-2.382-4.499-1.571-4.499,0c0,0.312,0,1.877,0,2.194c0,1.566,1,2.821,2.248,2.821
	c1.249,0,2.251-1.255,2.251-2.821C12.245,9.713,12.245,8.147,12.245,7.835z"/>
<path fill="#424242" d="M9.994,5.015c-1.5,0-2.5,1.566-2.5,3.443c0,0.25,0,0.694,0,0.694l0.503,0.561V8.147l2.999-1.255l0.995,1.255
	v1.566l0.505-0.561c0,0,0-0.444,0-0.694c0-1.25-0.251-2.505-1.5-2.815l-0.25-0.628H9.994z"/>
<path fill="#784719" d="M11.243,9.713c0,0.173-0.109,0.316-0.247,0.316c-0.143,0-0.25-0.143-0.25-0.316s0.107-0.312,0.25-0.312
	C11.133,9.401,11.243,9.54,11.243,9.713z"/>
<path fill="#784719" d="M9.242,9.713c0,0.173-0.105,0.316-0.244,0.316c-0.142,0-0.253-0.143-0.253-0.316s0.111-0.312,0.253-0.312
	C9.136,9.401,9.242,9.54,9.242,9.713z"/>
<path fill="#009688" d="M11.243,13.478c0,0-0.447,0.622-1.249,0.622c-0.8,0-1.249-0.622-1.249-0.622S5.996,14.1,5.996,17.549h7.996
	C13.992,14.1,11.243,13.478,11.243,13.478z"/>
</svg>
