<?xml version="1.0" encoding="utf-8"?>
<!DOCTYPE svg PUBLIC "-//W3C//DTD SVG 1.1//EN" "http://www.w3.org/Graphics/SVG/1.1/DTD/svg11.dtd" [
	<!ENTITY ns_flows "http://ns.adobe.com/Flows/1.0/">
]>
<svg version="1.1"
	 xmlns="http://www.w3.org/2000/svg" xmlns:xlink="http://www.w3.org/1999/xlink" xmlns:a="http://ns.adobe.com/AdobeSVGViewerExtensions/3.0/"
	 x="0px" y="0px" width="24px" height="24px" viewBox="-2.031 -1.989 24 24" enable-background="new -2.031 -1.989 24 24"
	 xml:space="preserve">
<defs>
</defs>
<path fill="#2196F3" d="M19.945,17.227c0,1.556-1.223,2.781-2.773,2.781H2.771C1.219,20.008,0,18.782,0,17.227V2.777
	C0,1.221,1.219,0,2.771,0h14.401c1.551,0,2.773,1.221,2.773,2.777V17.227z"/>
<path fill="#1976D2" d="M15.567,6.115H4.378c-0.889,0-1.608,0.719-1.608,1.61v6.779c0,0.891,0.719,1.609,1.608,1.609h11.189
	c0.884,0,1.604-0.719,1.604-1.609V7.725C17.172,6.833,16.451,6.115,15.567,6.115z"/>
<path fill="#ECEFF1" d="M15.567,5.002H4.378c-0.889,0-1.608,0.724-1.608,1.61v6.78c0,0.891,0.719,1.614,1.608,1.614h11.189
	c0.884,0,1.604-0.724,1.604-1.614v-6.78C17.172,5.726,16.451,5.002,15.567,5.002z"/>
<path fill="#90A4AE" d="M3.215,5.5C2.937,5.78,2.771,6.169,2.771,6.558l7.202,5.11l7.199-5.11c0-0.389-0.165-0.778-0.44-1.058
	l-6.759,4.839L3.215,5.5z"/>
</svg>
