<?xml version="1.0" encoding="utf-8"?>
<!DOCTYPE svg PUBLIC "-//W3C//DTD SVG 1.1//EN" "http://www.w3.org/Graphics/SVG/1.1/DTD/svg11.dtd" [
	<!ENTITY ns_flows "http://ns.adobe.com/Flows/1.0/">
]>
<svg version="1.1"
	 xmlns="http://www.w3.org/2000/svg" xmlns:xlink="http://www.w3.org/1999/xlink" xmlns:a="http://ns.adobe.com/AdobeSVGViewerExtensions/3.0/"
	 x="0px" y="0px" width="24px" height="24px" viewBox="-2.061 -1.967 24 24" enable-background="new -2.061 -1.967 24 24"
	 xml:space="preserve">
<defs>
</defs>
<path fill="none" d="M0,20.065V0h19.846v20.065H0z"/>
<path fill="#FFA000" d="M15.713,5.02H9.099L7.443,3.347H3.311c-0.908,0-1.655,0.754-1.655,1.673v10.026
	c0,0.918,0.747,1.673,1.655,1.673h12.82c0.7,0,1.238-0.544,1.238-1.251V6.686C17.37,5.768,16.622,5.02,15.713,5.02z"/>
<path fill="#FFCA28" d="M17.45,7.522H6.325c-0.78,0-1.486,0.585-1.608,1.381l-1.406,7.815h13.103c0.794,0,1.494-0.585,1.616-1.381
	l1.036-5.849C19.268,8.488,18.488,7.522,17.45,7.522z"/>
<path fill="#B0BEC5" d="M6.831,16.297l-1.116,0.422l0.411-1.129l2.979-3.007l0.701,0.708L6.831,16.297z"/>
<path fill="#D84315" d="M11.09,13.128l-1.783-1.844l3.473-3.006l1.285,1.292L11.09,13.128z"/>
<path fill="#FF5722" d="M14.805,9.57l-0.33,0.333c-0.16,0.17-0.49,0.17-0.658,0L12.492,8.57c-0.163-0.17-0.163-0.503,0-0.667
	l0.288-0.381L14.805,9.57z M10.753,15.046l0.377-0.374c0.493-0.504,0.493-1.34,0-1.837l-1.573-1.592
	c-0.498-0.503-1.32-0.503-1.818,0l-0.37,0.374L10.753,15.046z"/>
</svg>
