<?xml version="1.0" encoding="utf-8"?>
<!-- Generator: Adobe Illustrator 21.0.2, SVG Export Plug-In . SVG Version: 6.00 Build 0)  -->
<svg xmlns="http://www.w3.org/2000/svg" xmlns:xlink="http://www.w3.org/1999/xlink" version="1.1" id="Layer_1" x="0px" y="0px" viewBox="0 0 48 48" style="enable-background:new 0 0 48 48;" xml:space="preserve" width="24px" height="24px">
<circle style="fill:#7CB342;" cx="24" cy="24" r="21"/>
<path style="fill:#DCEDC8;" d="M24,36.1c-6.6,0-12-5.4-12-12c0-3.6,1.6-7,4.4-9.3l2.5,3.1c-1.8,1.5-2.9,3.8-2.9,6.2c0,4.4,3.6,8,8,8  s8-3.6,8-8c0-2.1-0.8-4-2.2-5.5l2.9-2.7C34.8,18,36,21,36,24.1C36,30.7,30.6,36.1,24,36.1z"/>
<polygon style="fill:#DCEDC8;" points="12,13 21,13 21,22 "/>
</svg>
