<?xml version="1.0" encoding="utf-8"?>
<!DOCTYPE svg PUBLIC "-//W3C//DTD SVG 1.1//EN" "http://www.w3.org/Graphics/SVG/1.1/DTD/svg11.dtd" [
	<!ENTITY ns_flows "http://ns.adobe.com/Flows/1.0/">
]>
<svg version="1.1"
	 xmlns="http://www.w3.org/2000/svg" xmlns:xlink="http://www.w3.org/1999/xlink" xmlns:a="http://ns.adobe.com/AdobeSVGViewerExtensions/3.0/"
	 x="0px" y="0px" width="24px" height="24px" viewBox="-1.946 -1.978 24 24" enable-background="new -1.946 -1.978 24 24"
	 xml:space="preserve">
<defs>
</defs>
<path fill="#1976D2" d="M12.885,6.347v11.718c0,0-9.789,0-11.333,0C0,18.065,0,16.595,0,16.595V6.347H12.885z"/>
<path fill="#90CAF9" d="M3.096,0v16.595c0,0,0,1.47-1.543,1.47H15.98c1.14,0,2.063-0.874,2.063-1.954V0H3.096z"/>
<path fill="#43A047" d="M20.108,15.133c0,2.693-2.316,4.878-5.159,4.878c-2.845,0-5.15-2.185-5.15-4.878
	c0-2.692,2.306-4.877,5.15-4.877C17.792,10.256,20.108,12.441,20.108,15.133z"/>
<path fill="#1976D2" d="M11.341,9.278v0.978h0.202c0.974-0.62,2.147-0.978,3.406-0.978H11.341z"/>
<path fill="#1976D2" d="M6.191,14.157h2.667c0.059-0.334,0.15-0.66,0.268-0.978H6.191V14.157z"/>
<path fill="#1976D2" d="M6.191,15.133v0.978h2.667c-0.059-0.318-0.093-0.644-0.093-0.978H6.191z"/>
<path fill="#1976D2" d="M11.341,5.371h4.128v0.977h-4.128V5.371z"/>
<path fill="#1976D2" d="M11.341,7.325h4.128v0.977h-4.128V7.325z"/>
<path fill="#1976D2" d="M6.191,1.954h9.277v1.955H6.191V1.954z"/>
<path fill="#1976D2" d="M6.191,12.203h3.413c0.203-0.334,0.437-0.644,0.705-0.93v-0.048H6.191V12.203z"/>
<path fill="#1976D2" d="M6.191,5.371h4.118v0.977H6.191V5.371z"/>
<path fill="#1976D2" d="M6.191,7.325h4.118v0.977H6.191V7.325z"/>
<path fill="#1976D2" d="M6.191,9.278h4.118v0.978H6.191V9.278z"/>
<path fill="#DCEDC8" d="M18.043,18.065H15.98v-1.954L18.043,18.065z"/>
<path fill="none" stroke="#DCEDC8" stroke-width="2" d="M12.76,17.207c-1.208-1.144-1.208-3.002,0-4.146s3.17-1.145,4.378,0
	s1.208,3.003,0,4.146"/>
</svg>
