<?xml version="1.0" encoding="utf-8"?>
<!DOCTYPE svg PUBLIC "-//W3C//DTD SVG 1.1//EN" "http://www.w3.org/Graphics/SVG/1.1/DTD/svg11.dtd" [
	<!ENTITY ns_flows "http://ns.adobe.com/Flows/1.0/">
]>
<svg version="1.1"
	 xmlns="http://www.w3.org/2000/svg" xmlns:xlink="http://www.w3.org/1999/xlink" xmlns:a="http://ns.adobe.com/AdobeSVGViewerExtensions/3.0/"
	 x="0px" y="0px" width="24px" height="24px" viewBox="-2.023 -2.104 24 24" enable-background="new -2.023 -2.104 24 24"
	 xml:space="preserve">
<defs>
</defs>
<path fill="#4FC3F7" d="M0,5.531v3.873h13.949l3.542-3.873H0z"/>
<path fill="#039BE5" d="M0,10.512v3.873h9.461l3.488-3.873H0z"/>
<path fill="#0277BD" d="M0,15.492v1.108c0,1.827,1.486,3.323,3.316,3.323h1.108l4.047-4.432H0z"/>
<path fill="#039BE5" d="M19.923,5.531h-2.433l-3.542,3.873h5.975V5.531z"/>
<path fill="#0288D1" d="M19.923,10.512H12.95l-3.488,3.873h10.462V10.512z"/>
<path fill="#01579B" d="M15.499,19.924h1.108c1.829,0,3.316-1.496,3.316-3.323v-1.108H8.471l-4.047,4.432h7.201"/>
<path fill="#81D4FA" d="M19.923,4.423v-1.1c0-0.171,0-0.333-0.055-0.451l-1.378,1.55H19.923z"/>
<path fill="#B3E5FC" d="M16.607,0H3.316C1.486,0,0,1.495,0,3.324v1.1h18.491l1.433-1.55C19.652,1.27,18.265,0,16.607,0z"/>
</svg>
