<?xml version="1.0" encoding="utf-8"?>
<!DOCTYPE svg PUBLIC "-//W3C//DTD SVG 1.1//EN" "http://www.w3.org/Graphics/SVG/1.1/DTD/svg11.dtd" [
	<!ENTITY ns_flows "http://ns.adobe.com/Flows/1.0/">
]>
<svg version="1.1"
	 xmlns="http://www.w3.org/2000/svg" xmlns:xlink="http://www.w3.org/1999/xlink" xmlns:a="http://ns.adobe.com/AdobeSVGViewerExtensions/3.0/"
	 x="0px" y="0px" width="24px" height="24px" viewBox="-1.937 -1.974 24 24" enable-background="new -1.937 -1.974 24 24"
	 xml:space="preserve">
<defs>
</defs>
<path fill="none" d="M0,20.033V0h20.002v20.033H0z"/>
<path fill="#FFA000" d="M15.838,5.014H9.17L7.501,3.343H3.33c-0.916,0-1.661,0.75-1.661,1.671V15.03c0,0.91,0.746,1.672,1.661,1.672
	h12.922c0.706,0,1.248-0.546,1.248-1.262V6.686C17.5,5.764,16.753,5.014,15.838,5.014z"/>
<path fill="#FFCA28" d="M17.588,7.515H6.375c-0.792,0-1.498,0.58-1.626,1.375L3.33,16.702h13.214c0.794,0,1.499-0.592,1.627-1.387
	l1.038-5.845C19.419,8.47,18.626,7.515,17.588,7.515z"/>
<path fill="#B0BEC5" d="M6.878,16.281l-1.126,0.421l0.42-1.138l2.998-3.001l0.712,0.717L6.878,16.281z"/>
<path fill="#D84315" d="M11.172,13.109l-1.791-1.843l3.5-3.001l1.289,1.296L11.172,13.109z"/>
<path fill="#FF5722" d="M14.922,9.562l-0.332,0.33c-0.169,0.171-0.502,0.171-0.665,0l-1.335-1.33c-0.171-0.171-0.171-0.5,0-0.671
	l0.291-0.375L14.922,9.562z M10.839,15.03l0.373-0.375c0.501-0.5,0.501-1.342,0-1.842l-1.58-1.58c-0.502-0.501-1.337-0.501-1.838,0
	l-0.374,0.375L10.839,15.03z"/>
<rect x="5.069" y="11.464" transform="matrix(0.7071 0.7071 -0.7071 0.7071 11.5235 -3.7969)" fill="#2980B9" width="10.551" height="1.093"/>
</svg>
