<?xml version="1.0" encoding="utf-8"?>
<!DOCTYPE svg PUBLIC "-//W3C//DTD SVG 1.1//EN" "http://www.w3.org/Graphics/SVG/1.1/DTD/svg11.dtd" [
	<!ENTITY ns_flows "http://ns.adobe.com/Flows/1.0/">
]>
<svg version="1.1"
	 xmlns="http://www.w3.org/2000/svg" xmlns:xlink="http://www.w3.org/1999/xlink" xmlns:a="http://ns.adobe.com/AdobeSVGViewerExtensions/3.0/"
	 x="0px" y="0px" width="24px" height="24px" viewBox="-2.009 -2.072 24 24" enable-background="new -2.009 -2.072 24 24"
	 xml:space="preserve">
<defs>
</defs>
<path fill="#1976D2" d="M12.825,6.347v11.718c0,0-9.744,0-11.28,0C0,18.065,0,16.595,0,16.595V6.347H12.825z"/>
<path fill="#90CAF9" d="M3.082,0v16.595c0,0,0,1.47-1.537,1.47h14.362c1.135,0,2.054-0.874,2.054-1.954V0H3.082z"/>
<path fill="#FFFFFF" d="M18.988,15.133c0,2.153-1.837,3.908-4.108,3.908c-2.263,0-4.101-1.755-4.101-3.908s1.838-3.908,4.101-3.908
	C17.151,11.225,18.988,12.98,18.988,15.133z"/>
<path fill="#F44336" d="M14.88,20.011c-2.831,0-5.127-2.185-5.127-4.878c0-2.692,2.296-4.878,5.127-4.878
	c2.83,0,5.134,2.186,5.134,4.878C20.014,17.827,17.71,20.011,14.88,20.011z M14.88,12.202c-1.695,0-3.081,1.319-3.081,2.932
	s1.386,2.932,3.081,2.932c1.693,0,3.081-1.319,3.081-2.932S16.573,12.202,14.88,12.202z"/>
<path fill="none" stroke="#F44336" stroke-width="3" d="M17.319,12.635l-4.881,5.004"/>
<path fill="#1976D2" d="M11.288,5.37h4.108v0.977h-4.108V5.37z"/>
<path fill="#1976D2" d="M11.288,7.325h4.108v0.977h-4.108V7.325z"/>
<path fill="#1976D2" d="M11.288,9.278v0.977h0.2c0.97-0.619,2.139-0.977,3.392-0.977H11.288z"/>
<path fill="#1976D2" d="M9.084,13.179H6.163v0.978h2.655C8.875,13.823,8.968,13.498,9.084,13.179z"/>
<path fill="#1976D2" d="M6.163,9.278h4.099v0.977H6.163V9.278z"/>
<path fill="#1976D2" d="M10.261,11.273v-0.048H6.163v0.977h3.398C9.761,11.868,9.995,11.558,10.261,11.273z"/>
<path fill="#1976D2" d="M8.726,15.133H6.163v0.978h2.655C8.759,15.793,8.726,15.467,8.726,15.133z"/>
<path fill="#1976D2" d="M6.163,1.955h9.234v1.954H6.163V1.955z"/>
<path fill="#1976D2" d="M6.163,7.325h4.099v0.977H6.163V7.325z"/>
<path fill="#1976D2" d="M6.163,5.37h4.099v0.977H6.163V5.37z"/>
</svg>
