<?xml version="1.0" encoding="utf-8"?>
<!DOCTYPE svg PUBLIC "-//W3C//DTD SVG 1.1//EN" "http://www.w3.org/Graphics/SVG/1.1/DTD/svg11.dtd" [
	<!ENTITY ns_flows "http://ns.adobe.com/Flows/1.0/">
]>
<svg version="1.1"
	 xmlns="http://www.w3.org/2000/svg" xmlns:xlink="http://www.w3.org/1999/xlink" xmlns:a="http://ns.adobe.com/AdobeSVGViewerExtensions/3.0/"
	 x="0px" y="0px" width="24px" height="24px" viewBox="-1.894 -1.956 24 24" enable-background="new -1.894 -1.956 24 24"
	 xml:space="preserve">
<defs>
</defs>
<path fill="none" d="M0,20.025V0h20.182v20.025H0z"/>
<path fill="#FFC107" d="M8.408,3.755v11.682c0,0,0.421,1.251,4.626,1.251c4.203,0,4.625-1.251,4.625-1.251V3.755H8.408z"/>
<path fill="#FFC107" d="M17.659,2.92c0-0.69-2.072-1.251-4.625-1.251c-2.555,0-4.626,0.561-4.626,1.251
	c0,0.691,2.071,1.251,4.626,1.251C15.587,4.172,17.659,3.612,17.659,2.92z"/>
<path fill="#FF9800" d="M8.408,5.424c0,0,0.421,1.251,4.626,1.251c4.203,0,4.625-1.251,4.625-1.251v1.251
	c0,0-0.422,1.251-4.625,1.251c-4.205,0-4.626-1.251-4.626-1.251V5.424z M8.408,9.178c0,0,0.421,1.251,4.626,1.251
	c4.203,0,4.625-1.251,4.625-1.251V7.927c0,0-0.422,1.251-4.625,1.251c-4.205,0-4.626-1.251-4.626-1.251V9.178z M8.408,11.682
	c0,0,0.421,1.251,4.626,1.251c4.203,0,4.625-1.251,4.625-1.251V10.43c0,0-0.422,1.252-4.625,1.252c-4.205,0-4.626-1.252-4.626-1.252
	V11.682z M8.408,14.185c0,0,0.421,1.252,4.626,1.252c4.203,0,4.625-1.252,4.625-1.252v-1.252c0,0-0.422,1.252-4.625,1.252
	c-4.205,0-4.626-1.252-4.626-1.252V14.185z M8.408,4.172c0,0,0.421,1.252,4.626,1.252c4.203,0,4.625-1.252,4.625-1.252V2.92
	c0,0-0.422,1.251-4.625,1.251c-4.205,0-4.626-1.251-4.626-1.251V4.172z"/>
<path fill="#F57C00" d="M11.773,13.308v3.335c0.379,0.026,0.792,0.045,1.261,0.045c0.146,0,0.282-0.004,0.42-0.009v-3.371
	c0-2.148-2.777-2.564-5.021-2.829l-0.025,1.627C10.348,12.253,11.773,12.735,11.773,13.308z"/>
<path fill="#D66805" d="M13.034,12.933c0.137,0,0.261-0.004,0.39-0.009c-0.092-0.529-0.378-0.933-0.786-1.251
	c-3.36-0.068-4.081-0.975-4.205-1.194l-0.011,0.792c1.933,0.15,3.351,0.631,3.351,1.203v0.414
	C12.152,12.914,12.565,12.933,13.034,12.933z"/>
<path fill="#D66805" d="M11.773,14.139v1.252c0.379,0.026,0.792,0.046,1.261,0.046c0.146,0,0.282-0.005,0.42-0.009v-1.252
	c-0.138,0.004-0.273,0.009-0.42,0.009C12.565,14.185,12.152,14.167,11.773,14.139z"/>
<path fill="#CFD8DC" d="M2.523,12.099h9.25v3.755h-9.25V12.099z"/>
<path fill="#CFD8DC" d="M2.523,15.019c0,0,0.42,1.252,4.625,1.252c4.205,0,4.625-1.252,4.625-1.252v1.669
	c0,0-0.421,1.252-4.625,1.252c-4.205,0-4.625-1.252-4.625-1.252V15.019z"/>
<path fill="#CFD8DC" d="M11.773,11.682c0-0.691-2.071-1.252-4.625-1.252c-2.554,0-4.625,0.561-4.625,1.252s2.071,1.251,4.625,1.251
	C9.703,12.933,11.773,12.373,11.773,11.682z"/>
<path fill="#90A4AE" d="M2.523,11.682c0,0,0.42,1.251,4.625,1.251c4.205,0,4.625-1.251,4.625-1.251v1.251
	c0,0-0.421,1.252-4.625,1.252c-4.205,0-4.625-1.252-4.625-1.252V11.682z"/>
<path fill="#90A4AE" d="M2.523,14.185c0,0,0.42,1.252,4.625,1.252c4.205,0,4.625-1.252,4.625-1.252v1.252
	c0,0-0.421,1.251-4.625,1.251c-4.205,0-4.625-1.251-4.625-1.251V14.185z"/>
<path fill="#43A047" d="M17.778,14.026c0,2.295-1.892,4.172-4.204,4.172c-2.312,0-4.205-1.877-4.205-4.172s1.893-4.172,4.205-4.172
	C15.887,9.854,17.778,11.731,17.778,14.026"/>
<path fill="#FFFFFF" d="M16.098,13.192h-1.682v-1.669h-1.683v1.669h-1.682v1.668h1.682v1.669h1.683V14.86h1.682V13.192z"/>
</svg>
