<?xml version="1.0" encoding="utf-8"?>
<!DOCTYPE svg PUBLIC "-//W3C//DTD SVG 1.1//EN" "http://www.w3.org/Graphics/SVG/1.1/DTD/svg11.dtd" [
	<!ENTITY ns_flows "http://ns.adobe.com/Flows/1.0/">
]>
<svg version="1.1"
	 xmlns="http://www.w3.org/2000/svg" xmlns:xlink="http://www.w3.org/1999/xlink" xmlns:a="http://ns.adobe.com/AdobeSVGViewerExtensions/3.0/"
	 x="0px" y="0px" width="24px" height="24px" viewBox="-2.05 -2.081 24 24" enable-background="new -2.05 -2.081 24 24"
	 xml:space="preserve">
<defs>
</defs>
<path fill="none" d="M0,19.869V0h19.963v19.869H0z"/>
<path fill="#FFC107" d="M8.318,3.726v11.59c0,0,0.416,1.241,4.574,1.241c4.16,0,4.576-1.241,4.576-1.241V3.726H8.318z"/>
<path fill="#FFC107" d="M17.468,2.898c0-0.686-2.049-1.242-4.576-1.242c-2.526,0-4.574,0.556-4.574,1.242s2.048,1.242,4.574,1.242
	C15.419,4.14,17.468,3.583,17.468,2.898z"/>
<path fill="#FF9800" d="M8.318,5.382c0,0,0.416,1.242,4.574,1.242c4.16,0,4.576-1.242,4.576-1.242v1.242
	c0,0-0.416,1.242-4.576,1.242c-4.158,0-4.574-1.242-4.574-1.242V5.382z M8.318,9.107c0,0,0.416,1.242,4.574,1.242
	c4.16,0,4.576-1.242,4.576-1.242V7.865c0,0-0.416,1.242-4.576,1.242c-4.158,0-4.574-1.242-4.574-1.242V9.107z M8.318,11.59
	c0,0,0.416,1.241,4.574,1.241c4.16,0,4.576-1.241,4.576-1.241v-1.241c0,0-0.416,1.241-4.576,1.241c-4.158,0-4.574-1.241-4.574-1.241
	V11.59z M8.318,14.073c0,0,0.416,1.242,4.574,1.242c4.16,0,4.576-1.242,4.576-1.242v-1.242c0,0-0.416,1.242-4.576,1.242
	c-4.158,0-4.574-1.242-4.574-1.242V14.073z M8.318,4.14c0,0,0.416,1.242,4.574,1.242c4.16,0,4.576-1.242,4.576-1.242V2.898
	c0,0-0.416,1.242-4.576,1.242c-4.158,0-4.574-1.242-4.574-1.242V4.14z"/>
<path fill="#F57C00" d="M11.645,13.203v3.31c0.376,0.027,0.784,0.044,1.247,0.044c0.146,0,0.28-0.004,0.418-0.007v-3.347
	c0-2.131-2.749-2.544-4.967-2.807l-0.024,1.614C10.236,12.158,11.645,12.637,11.645,13.203z"/>
<path fill="#D66805" d="M12.892,12.831c0.136,0,0.259-0.004,0.386-0.007c-0.09-0.526-0.373-0.927-0.776-1.241
	c-3.324-0.069-4.037-0.968-4.159-1.187l-0.011,0.786c1.912,0.149,3.313,0.626,3.313,1.193v0.411
	C12.021,12.814,12.429,12.831,12.892,12.831z"/>
<path fill="#D66805" d="M11.645,14.028v1.242c0.376,0.027,0.784,0.045,1.247,0.045c0.146,0,0.28-0.005,0.418-0.007v-1.242
	c-0.138,0.002-0.271,0.007-0.418,0.007C12.429,14.073,12.021,14.057,11.645,14.028z"/>
<path fill="#CFD8DC" d="M2.496,12.005h9.149v3.726H2.496V12.005z"/>
<path fill="#CFD8DC" d="M2.496,14.901c0,0,0.416,1.242,4.574,1.242c4.16,0,4.575-1.242,4.575-1.242v1.655
	c0,0-0.415,1.242-4.575,1.242c-4.158,0-4.574-1.242-4.574-1.242V14.901z"/>
<path fill="#CFD8DC" d="M11.645,11.59c0-0.685-2.047-1.241-4.575-1.241c-2.526,0-4.574,0.557-4.574,1.241
	c0,0.687,2.048,1.241,4.574,1.241C9.597,12.831,11.645,12.276,11.645,11.59z"/>
<path fill="#90A4AE" d="M2.496,11.59c0,0,0.416,1.241,4.574,1.241c4.16,0,4.575-1.241,4.575-1.241v1.241
	c0,0-0.415,1.242-4.575,1.242c-4.158,0-4.574-1.242-4.574-1.242V11.59z"/>
<path fill="#90A4AE" d="M2.496,14.073c0,0,0.416,1.242,4.574,1.242c4.16,0,4.575-1.242,4.575-1.242v1.242
	c0,0-0.415,1.241-4.575,1.241c-4.158,0-4.574-1.241-4.574-1.241V14.073z"/>
<path fill="#FF3D00" d="M17.586,13.916c0,2.278-1.871,4.139-4.158,4.139c-2.288,0-4.16-1.86-4.16-4.139
	c0-2.276,1.872-4.139,4.16-4.139C15.715,9.777,17.586,11.64,17.586,13.916"/>
<path fill="#FFFFFF" d="M15.63,12.592l-0.872-0.869l-1.33,1.325l-1.332-1.325l-0.872,0.869l1.33,1.324l-1.33,1.325l0.872,0.869
	l1.332-1.324l1.33,1.324l0.872-0.869l-1.33-1.325L15.63,12.592z"/>
</svg>
