<?xml version="1.0" encoding="utf-8"?>
<!DOCTYPE svg PUBLIC "-//W3C//DTD SVG 1.1//EN" "http://www.w3.org/Graphics/SVG/1.1/DTD/svg11.dtd" [
	<!ENTITY ns_flows "http://ns.adobe.com/Flows/1.0/">
]>
<svg version="1.1"
	 xmlns="http://www.w3.org/2000/svg" xmlns:xlink="http://www.w3.org/1999/xlink" xmlns:a="http://ns.adobe.com/AdobeSVGViewerExtensions/3.0/"
	 x="0px" y="0px" width="24px" height="24px" viewBox="-1.96 -1.917 24 24" enable-background="new -1.96 -1.917 24 24"
	 xml:space="preserve">
<defs>
</defs>
<path fill="#CFD8DC" d="M18.378,0H1.671C0.748,0,0,0.748,0,1.672v18.409l4.764-3.905h13.614c0.923,0,1.672-0.748,1.672-1.673V1.672
	C20.05,0.748,19.301,0,18.378,0z"/>
<path fill="#42A5F5" d="M3.341,1.672h13.366c0.923,0,1.671,0.75,1.671,1.674v16.735l-6.683-5.578H3.341
	c-0.923,0-1.67-0.75-1.67-1.675V3.346C1.671,2.422,2.418,1.672,3.341,1.672z"/>
<path fill="#BBDEFB" d="M13.923,7.25c0,0.618-0.497,1.117-1.114,1.117c-0.616,0-1.113-0.499-1.113-1.117
	c0-0.616,0.497-1.115,1.113-1.115C13.426,6.136,13.923,6.635,13.923,7.25"/>
<path fill="#BBDEFB" d="M15.038,10.412c0,0-0.617-1.487-2.229-1.487s-2.228,1.487-2.228,1.487v0.745h4.456V10.412z"/>
<path fill="#E3F2FD" d="M10.025,6.136c0,0.924-0.749,1.672-1.671,1.672c-0.921,0-1.671-0.748-1.671-1.672
	c0-0.925,0.75-1.674,1.671-1.674C9.276,4.461,10.025,5.211,10.025,6.136"/>
<path fill="#E3F2FD" d="M11.696,10.227c0,0-0.924-1.86-3.342-1.86c-2.417,0-3.341,1.86-3.341,1.86v0.929h6.684V10.227z"/>
</svg>
